<?xml version="1.0" standalone="no"?>
<!DOCTYPE svg PUBLIC "-//W3C//DTD SVG 20010904//EN"
 "http://www.w3.org/TR/2001/REC-SVG-20010904/DTD/svg10.dtd">
<svg version="1.0" xmlns="http://www.w3.org/2000/svg"
 width="512.000000pt" height="512.000000pt" viewBox="0 0 512.000000 512.000000"
 preserveAspectRatio="xMidYMid meet">

<g transform="translate(0.000000,512.000000) scale(0.100000,-0.100000)"
fill="#000000" stroke="none">
<path d="M2055 5107 c-120 -47 -183 -146 -172 -268 7 -75 44 -140 103 -182 28
-19 42 -37 40 -46 -3 -9 -86 -360 -186 -781 -100 -421 -186 -781 -191 -801
l-9 -36 -80 -5 c-63 -4 -87 -10 -118 -30 -58 -39 -72 -77 -72 -202 l0 -106
-90 0 -90 0 0 106 c0 78 -4 115 -17 141 -18 39 -71 78 -121 88 l-32 7 0 105
c0 124 -14 162 -72 200 -28 19 -55 27 -108 31 l-70 5 0 123 0 124 43 0 c88 0
160 38 192 101 18 35 21 278 4 312 -17 33 -61 78 -89 90 -14 6 -107 13 -208
16 l-183 6 -91 210 c-49 116 -100 221 -112 234 -38 42 -93 61 -184 61 -79 0
-85 -2 -113 -29 -37 -38 -39 -82 -4 -116 21 -22 33 -25 98 -25 l75 0 77 -177
c104 -239 100 -226 81 -273 -24 -60 -22 -251 3 -305 32 -71 91 -104 189 -105
l52 0 0 -125 0 -125 -55 0 c-58 0 -116 -19 -149 -48 -39 -35 -56 -91 -56 -194
l0 -97 -39 -11 c-94 -25 -124 -76 -131 -225 l-5 -109 -34 -7 c-45 -9 -81 -38
-108 -85 -22 -38 -23 -47 -23 -332 0 -225 3 -300 14 -325 17 -42 66 -83 116
-98 l40 -12 0 -732 0 -732 -44 10 c-54 12 -98 -3 -115 -39 -16 -37 -14 -60 12
-89 19 -22 59 -37 237 -87 301 -84 421 -107 580 -115 155 -7 286 6 440 43 243
57 313 66 495 61 124 -4 194 -11 260 -26 413 -97 604 -105 895 -35 243 57 313
66 495 61 119 -4 195 -11 255 -25 323 -76 314 -74 515 -75 231 -1 287 8 630
103 211 58 253 73 272 95 25 29 28 52 12 88 -18 40 -52 52 -109 41 l-50 -11 0
732 0 732 40 12 c50 15 99 56 116 98 21 50 20 589 -1 640 -31 75 -74 102 -176
110 l-69 6 0 208 c0 166 3 209 13 209 40 0 123 35 158 67 71 64 83 99 87 255
4 156 -7 208 -59 271 -61 74 -87 81 -324 87 l-210 5 -3 317 -2 316 -32 27
c-36 31 -79 29 -113 -6 -19 -19 -20 -35 -23 -339 l-3 -320 -202 0 c-229 0
-252 -6 -319 -76 -53 -56 -70 -104 -75 -219 -9 -184 27 -283 126 -342 29 -17
70 -34 92 -38 l39 -7 0 -209 0 -209 -130 0 -130 0 0 106 c0 125 -14 163 -72
202 -31 20 -55 26 -118 30 l-80 5 -9 36 c-5 20 -91 380 -191 801 -100 421
-183 772 -186 781 -2 9 12 27 40 46 156 110 134 353 -39 438 -38 19 -65 20
-525 22 -355 1 -493 -1 -515 -10z m968 -169 c53 -28 64 -92 22 -133 l-24 -25
-461 0 -461 0 -24 25 c-41 40 -31 104 20 133 29 16 897 17 928 0z m-169 -337
c-22 -21 -285 -191 -294 -191 -9 0 -272 170 -294 191 -6 5 121 9 294 9 173 0
300 -4 294 -9z m-569 -218 c63 -43 115 -81 115 -84 0 -3 -72 -54 -160 -112
-88 -59 -160 -104 -160 -100 -1 14 84 373 88 373 2 0 55 -35 117 -77z m750
-267 l7 -38 -161 108 c-88 60 -161 111 -161 114 0 3 53 40 118 82 l117 78 37
-153 c20 -83 40 -169 43 -191z m-276 -53 l188 -128 -193 -3 c-107 -1 -281 -1
-388 0 l-193 3 186 127 c102 70 192 127 199 128 8 0 98 -57 201 -127z m-1909
-223 l0 -90 -167 2 -168 3 -3 74 c-2 41 -1 80 2 88 4 10 42 13 171 13 l165 0
0 -90z m2104 -99 c-15 -14 -385 -231 -394 -231 -9 0 -379 217 -394 231 -6 5
165 9 394 9 229 0 400 -4 394 -9z m-768 -211 c104 -62 192 -115 196 -119 4 -3
-115 -79 -265 -167 -150 -89 -273 -161 -275 -159 -2 2 26 127 62 279 36 151
66 278 66 282 0 11 19 0 216 -116z m964 115 c0 -3 30 -130 66 -281 36 -152 64
-277 62 -279 -2 -2 -126 70 -276 159 l-273 163 203 121 c194 116 218 129 218
117z m1771 -84 c22 -18 24 -27 27 -139 3 -115 3 -120 -21 -148 l-25 -29 -444
-3 c-243 -1 -453 0 -466 3 -12 3 -31 14 -42 25 -18 18 -20 34 -20 142 0 111 2
124 22 145 l21 23 463 0 c440 0 463 -1 485 -19z m-2091 -413 l258 -153 -264
-3 c-145 -1 -383 -1 -528 0 l-264 3 256 152 c142 84 263 153 271 153 7 0 129
-69 271 -152z m-1980 -73 l0 -85 -170 0 -170 0 0 85 0 85 170 0 170 0 0 -85z
m3840 -215 l0 -210 -255 0 -255 0 0 210 0 210 255 0 255 0 0 -210z m-3670
-125 l0 -85 -340 0 -340 0 0 85 0 85 340 0 340 0 0 -85z m2560 0 l0 -85 -1020
0 -1020 0 0 85 0 85 1020 0 1020 0 0 -85z m1370 -520 l0 -255 -2390 0 -2390 0
0 255 0 255 2390 0 2390 0 0 -255z m-4270 -1226 l0 -801 -32 7 c-18 4 -95 23
-170 42 l-138 36 0 758 0 759 170 0 170 0 0 -801z m860 647 c0 -142 2 -155 23
-186 51 -75 46 -74 365 -80 l287 -5 3 -127 3 -128 -686 0 -685 0 0 340 0 340
345 0 345 0 0 -154z m1870 29 l0 -125 -850 0 -850 0 0 125 0 125 850 0 850 0
0 -125z m860 -215 l0 -340 -685 0 -686 0 3 128 3 127 287 5 c319 6 314 5 366
80 20 31 22 44 22 186 l0 154 345 0 345 0 0 -340z m510 -419 l0 -758 -137 -36
c-76 -19 -153 -38 -170 -42 l-33 -7 0 801 0 801 170 0 170 0 0 -759z m-2050
-255 l0 -593 -52 -7 c-68 -8 -168 -8 -235 0 l-53 7 0 593 0 594 170 0 170 0 0
-594z m-510 -200 l0 -364 -75 19 c-127 33 -264 49 -415 49 -158 0 -260 -14
-451 -60 -132 -32 -265 -50 -366 -50 l-63 0 0 385 0 385 685 0 685 0 0 -364z
m2050 -21 l0 -385 -62 0 c-104 0 -235 19 -388 55 -192 45 -273 55 -445 55
-142 0 -297 -20 -422 -54 l-53 -14 0 364 0 364 685 0 685 0 0 -385z"/>
</g>
</svg>
