<?xml version="1.0" standalone="no"?>
<!DOCTYPE svg PUBLIC "-//W3C//DTD SVG 20010904//EN"
 "http://www.w3.org/TR/2001/REC-SVG-20010904/DTD/svg10.dtd">
<svg version="1.0" xmlns="http://www.w3.org/2000/svg"
 width="512.000000pt" height="512.000000pt" viewBox="0 0 512.000000 512.000000"
 preserveAspectRatio="xMidYMid meet">

<g transform="translate(0.000000,512.000000) scale(0.100000,-0.100000)"
fill="#000000" stroke="none">
<path d="M4316 5105 c-84 -22 -172 -72 -236 -135 -68 -67 -96 -115 -145 -247
-21 -57 -44 -103 -51 -103 -7 0 -702 -90 -1545 -200 l-1533 -200 -90 53 c-111
65 -144 77 -210 77 -96 0 -184 -59 -225 -150 -20 -44 -21 -59 -21 -1267 l0
-1221 -33 -7 c-49 -10 -102 -49 -120 -88 -24 -49 -25 -373 -2 -417 20 -40 76
-80 119 -87 36 -6 36 -6 36 -54 0 -45 -2 -49 -35 -65 -42 -20 -102 -84 -121
-130 -8 -18 -14 -61 -14 -94 0 -102 47 -183 131 -225 108 -55 216 -39 300 45
42 42 49 55 49 88 0 39 -24 71 -62 85 -27 9 -73 -11 -96 -43 -12 -15 -35 -31
-51 -35 -92 -20 -142 103 -62 150 94 55 131 117 131 221 0 51 0 52 35 58 45 9
93 50 116 101 15 33 19 66 19 185 0 80 -5 163 -11 185 -14 51 -65 100 -117
114 l-42 12 0 1064 c0 586 3 1065 7 1065 8 0 2270 -1333 2298 -1354 18 -14
-79 -15 -918 -16 -1017 0 -967 3 -1042 -54 -17 -13 -44 -48 -60 -77 l-30 -54
-3 -213 c-3 -179 -1 -221 13 -267 20 -63 67 -122 119 -150 l36 -20 0 -733 0
-733 -52 6 c-131 15 -209 32 -445 96 -139 38 -259 69 -267 69 -28 0 -64 -22
-75 -47 -16 -36 -13 -59 12 -88 18 -21 60 -37 237 -86 299 -84 420 -108 580
-116 155 -7 286 6 440 43 243 57 313 66 495 61 124 -4 194 -11 260 -26 413
-97 604 -105 895 -35 243 57 313 66 495 61 119 -4 195 -11 255 -25 325 -76
314 -74 520 -75 232 -1 273 5 629 104 207 57 249 72 268 94 25 29 28 52 12 88
-18 40 -52 52 -109 41 l-50 -11 0 658 0 658 21 6 c33 11 98 74 122 119 20 38
22 58 25 261 2 151 0 233 -9 263 -17 60 -60 116 -113 147 l-46 27 -2 1126 -3
1127 -22 59 c-58 150 -174 266 -319 317 -78 27 -210 33 -288 14z m226 -175
c112 -34 194 -123 224 -242 40 -153 -34 -310 -178 -384 -41 -21 -71 -28 -133
-32 -110 -6 -179 21 -256 97 -76 77 -102 146 -97 256 5 97 32 159 94 222 95
94 216 123 346 83z m-722 -499 c0 -9 -610 -1613 -615 -1619 -2 -2 -487 281
-1078 630 -591 348 -1070 635 -1064 637 13 5 2698 358 2735 360 12 0 22 -3 22
-8z m257 -182 l45 -47 -329 -863 -329 -864 -89 -3 c-49 -2 -94 -1 -101 2 -11
4 99 300 628 1684 l81 213 25 -38 c13 -21 45 -59 69 -84z m701 -901 l-3 -873
-82 -3 -83 -3 0 830 0 829 38 15 c20 8 55 29 77 45 22 17 43 31 48 31 4 1 6
-392 5 -871z m-4220 818 c32 -17 2574 -1515 2580 -1521 6 -5 -52 -155 -60
-155 -14 0 -2623 1542 -2635 1558 -22 27 -16 80 12 107 27 28 63 32 103 11z
m3822 -65 l55 -6 0 -340 0 -340 -214 -3 c-210 -2 -213 -2 -208 18 3 11 63 171
133 356 127 333 128 335 153 328 15 -3 51 -9 81 -13z m60 -946 l0 -85 -280 0
c-155 0 -280 4 -280 9 0 9 48 140 56 153 3 4 117 8 255 8 l249 0 0 -85z m-2
-467 l-3 -213 -392 -3 c-216 -1 -393 1 -393 5 0 6 92 251 151 401 l9 22 315 0
315 0 -2 -212z m-3248 -644 l0 -255 -145 3 c-199 4 -189 -7 -193 226 -5 288
-10 282 195 282 l143 0 0 -256z m1628 4 l-3 -253 -722 -3 -723 -2 0 255 0 255
725 0 725 0 -2 -252z m1622 -3 l0 -255 -725 0 -725 0 0 255 0 255 725 0 725 0
0 -255z m481 236 c24 -19 24 -23 27 -224 l3 -205 -25 -28 -24 -29 -146 -3
-146 -3 0 255 0 256 144 0 c127 0 147 -2 167 -19z m-3381 -1335 l0 -674 -47
-6 c-27 -4 -114 -23 -195 -42 -82 -19 -177 -37 -213 -41 l-65 -6 0 722 0 721
260 0 260 0 0 -674z m930 -49 l0 -723 -77 8 c-43 5 -143 24 -223 43 -172 40
-273 55 -381 55 l-79 0 0 670 0 670 380 0 380 0 0 -723z m690 48 l0 -675 -22
-4 c-13 -2 -93 -20 -179 -40 -85 -20 -190 -39 -232 -44 l-77 -8 0 723 0 723
255 0 255 0 0 -675z m940 -46 l0 -722 -64 6 c-36 3 -131 22 -213 41 -183 43
-277 56 -399 56 l-94 0 0 670 0 670 385 0 385 0 0 -721z m680 47 l0 -673 -137
-36 c-127 -33 -195 -46 -325 -61 l-48 -6 0 725 0 725 255 0 255 0 0 -674z
m-4352 462 l3 -128 -86 0 -85 0 0 130 0 131 83 -3 82 -3 3 -127z"/>
<path d="M4392 4683 c-22 -9 -44 -63 -37 -93 8 -35 33 -58 71 -66 44 -9 94 35
94 82 0 62 -66 102 -128 77z"/>
</g>
</svg>
