<?xml version="1.0" standalone="no"?>
<!DOCTYPE svg PUBLIC "-//W3C//DTD SVG 20010904//EN"
 "http://www.w3.org/TR/2001/REC-SVG-20010904/DTD/svg10.dtd">
<svg version="1.0" xmlns="http://www.w3.org/2000/svg"
 width="512.000000pt" height="512.000000pt" viewBox="0 0 512.000000 512.000000"
 preserveAspectRatio="xMidYMid meet">

<g transform="translate(0.000000,512.000000) scale(0.100000,-0.100000)"
fill="#000000" stroke="none">
<path d="M380 4865 l0 -255 -190 0 -190 0 0 -300 0 -300 187 -2 188 -3 3
-1122 2 -1123 -115 0 -115 0 0 -150 0 -150 -75 0 -75 0 0 -599 0 -598 54 -11
c66 -13 131 -45 251 -123 171 -110 278 -143 399 -122 81 14 155 48 274 124
150 97 212 123 302 123 90 0 152 -26 302 -123 174 -112 280 -145 402 -124 81
14 155 48 274 124 150 97 212 123 302 123 90 0 152 -26 302 -123 174 -112 280
-145 402 -124 81 14 155 48 274 124 150 97 212 123 302 123 89 0 154 -26 296
-119 112 -73 171 -102 247 -121 114 -30 237 -5 363 73 231 142 256 155 337
168 l37 6 0 75 0 75 -48 -6 c-107 -15 -170 -42 -334 -147 -226 -144 -290 -143
-525 5 -45 29 -82 55 -83 58 0 3 16 13 37 23 68 32 203 152 203 179 0 3 -25
24 -55 47 l-55 42 -64 -60 c-108 -101 -171 -125 -401 -151 -108 -12 -169 -37
-318 -131 -69 -43 -141 -86 -161 -94 l-36 -15 0 821 0 820 23 -6 c13 -3 248
-73 523 -156 274 -83 507 -153 517 -156 16 -5 17 -29 17 -323 0 -257 -3 -327
-15 -369 -9 -29 -14 -56 -11 -61 3 -5 33 -19 67 -31 72 -27 71 -29 96 80 15
64 17 129 18 440 l0 365 -72 24 -73 24 -2 156 -3 156 -72 23 -73 24 0 319 0
319 -360 0 -360 0 0 150 0 150 -300 0 -300 0 0 -150 0 -150 -360 0 -360 0 0
-319 0 -320 -73 -23 -72 -23 -3 -157 -3 -157 -72 -23 -72 -23 1 -370 c1 -407
5 -446 64 -571 59 -124 179 -250 283 -300 20 -10 37 -20 37 -23 -1 -13 -207
-135 -256 -152 -97 -34 -174 -20 -293 54 -191 118 -231 139 -293 158 l-68 21
0 304 0 304 60 0 c138 0 229 89 230 223 0 131 -104 227 -247 227 l-42 0 -3
147 -3 148 -113 3 -112 3 2 1122 3 1122 993 3 992 2 0 -130 0 -130 -37 -19
c-188 -97 -190 -366 -4 -463 157 -82 354 15 377 185 l7 47 -75 0 -75 0 -7 -30
c-19 -95 -160 -111 -205 -23 -20 40 -13 90 18 125 25 29 35 32 95 36 l66 4 0
199 0 199 450 0 450 0 0 219 0 218 -47 7 c-27 3 -387 40 -801 81 l-753 75
-725 0 -724 0 0 255 0 255 -150 0 -150 0 0 -75 0 -75 75 0 75 0 0 -180 0 -180
-225 0 -225 0 0 180 0 180 75 0 75 0 0 75 0 75 -150 0 -150 0 0 -255z m985
-555 l150 -150 -683 0 -682 0 0 150 0 150 533 0 532 0 150 -150z m450 0 l150
-150 -120 0 -120 0 -142 142 c-79 79 -143 146 -143 150 0 5 51 8 113 8 l112 0
150 -150z m450 0 l150 -150 -120 0 -120 0 -142 142 c-79 79 -143 146 -143 150
0 5 51 8 113 8 l112 0 150 -150z m1023 78 l732 -73 0 -77 0 -78 -697 0 -698 0
-142 142 c-79 79 -143 146 -143 150 0 22 273 3 948 -64z m-2308 -548 c0 -93
-1 -170 -3 -170 -1 0 -79 77 -172 170 l-170 170 173 0 172 0 0 -170z m-280
-115 l165 -165 -168 0 -167 0 0 165 c0 91 1 165 3 165 1 0 76 -74 167 -165z
m280 -485 c0 -93 -1 -170 -3 -170 -1 0 -79 77 -172 170 l-170 170 173 0 172 0
0 -170z m-280 -115 l165 -165 -168 0 -167 0 0 165 c0 91 1 165 3 165 1 0 76
-74 167 -165z m280 -485 c0 -93 -1 -170 -3 -170 -1 0 -79 77 -172 170 l-170
170 173 0 172 0 0 -170z m2370 65 l0 -75 -150 0 -150 0 0 75 0 75 150 0 150 0
0 -75z m-2650 -180 l165 -165 -168 0 -167 0 0 165 c0 91 1 165 3 165 1 0 76
-74 167 -165z m3360 -266 c0 -205 -1 -220 -17 -215 -10 3 -203 62 -430 130
l-411 125 -414 -125 c-227 -68 -421 -127 -430 -130 -17 -5 -18 10 -18 215 l0
221 860 0 860 0 0 -221z m-3080 -219 c0 -93 -1 -170 -3 -170 -1 0 -79 77 -172
170 l-170 170 173 0 172 0 0 -170z m2728 -51 l502 -152 0 -80 c0 -67 -2 -78
-15 -73 -52 20 -979 296 -994 296 -15 0 -948 -278 -998 -297 -10 -4 -13 15
-13 74 l0 80 498 151 c273 83 502 151 507 151 6 1 236 -67 513 -150z m-2968
-93 l135 -136 -173 0 -172 0 0 166 0 166 38 -30 c20 -17 98 -92 172 -166z
m2380 -916 l0 -820 -27 12 c-27 12 -78 42 -236 139 -102 62 -178 87 -307 98
-58 5 -128 17 -156 25 -107 33 -245 150 -297 252 -54 106 -57 133 -57 474 l0
317 203 62 c111 33 348 106 527 160 179 55 331 100 338 100 9 1 12 -169 12
-819z m-1920 555 l0 -75 -450 0 -450 0 0 75 0 75 450 0 450 0 0 -75z m274
-246 c33 -26 36 -79 6 -109 -20 -20 -33 -20 -675 -20 l-655 0 0 75 0 75 649 0
c641 0 649 0 675 -21z m-274 -583 l0 -305 -57 -16 c-74 -22 -114 -42 -247
-128 -227 -146 -291 -143 -546 22 -52 33 -118 71 -147 83 l-53 22 0 313 0 313
525 0 525 0 0 -304z"/>
<path d="M3726 1445 c-9 -30 -19 -61 -22 -68 -4 -11 14 -20 66 -36 40 -12 73
-21 75 -19 1 2 11 34 23 71 14 49 17 70 9 73 -32 11 -113 34 -124 34 -6 0 -19
-25 -27 -55z"/>
<path d="M4025 1409 c-24 -66 -35 -104 -35 -118 0 -11 18 -21 60 -33 32 -10
64 -18 69 -18 6 0 18 26 27 58 9 31 19 62 21 69 3 7 -17 18 -54 29 -32 9 -64
19 -70 21 -7 3 -15 -1 -18 -8z"/>
</g>
</svg>
