<?xml version="1.0" standalone="no"?>
<!DOCTYPE svg PUBLIC "-//W3C//DTD SVG 20010904//EN"
 "http://www.w3.org/TR/2001/REC-SVG-20010904/DTD/svg10.dtd">
<svg version="1.0" xmlns="http://www.w3.org/2000/svg"
 width="512.000000pt" height="512.000000pt" viewBox="0 0 512.000000 512.000000"
 preserveAspectRatio="xMidYMid meet">

<g transform="translate(0.000000,512.000000) scale(0.100000,-0.100000)"
fill="#000000" stroke="none">
<path d="M987 4962 c-14 -15 -17 -42 -17 -160 0 -129 2 -144 20 -162 32 -32
66 -25 89 17 18 35 15 273 -5 301 -19 27 -64 29 -87 4z"/>
<path d="M2893 4956 c-17 -8 -39 -25 -48 -39 -11 -17 -44 -218 -105 -638 l-90
-614 47 -80 c25 -44 51 -87 56 -96 8 -13 4 -24 -22 -49 -17 -18 -41 -50 -52
-71 l-19 -39 -123 0 -123 0 -474 -380 c-261 -210 -485 -392 -497 -406 -27 -30
-30 -81 -8 -124 19 -36 47 -52 91 -52 20 0 243 86 576 222 299 122 555 229
571 237 15 7 41 35 58 61 l30 47 -5 -65 c-3 -36 -35 -630 -71 -1320 -37 -690
-68 -1265 -71 -1277 -4 -21 -10 -22 -111 -25 -104 -3 -108 -4 -122 -29 -13
-24 -13 -29 2 -53 l17 -26 534 0 c504 0 534 1 549 18 21 23 21 41 1 70 -14 20
-23 22 -119 22 l-103 0 -6 62 c-3 35 -26 459 -51 943 -25 484 -48 894 -51 912
-9 60 -62 83 -99 43 -17 -19 -15 -57 34 -977 28 -527 51 -964 51 -970 0 -10
-48 -13 -206 -13 l-206 0 6 72 c3 40 35 638 72 1328 36 690 67 1264 69 1275 4
17 12 20 65 20 l60 0 1 -50 c0 -27 6 -150 13 -273 14 -242 17 -255 72 -254 59
0 60 12 41 355 -7 114 -12 207 -11 207 1 0 14 -22 31 -48 l29 -48 569 -233
c351 -144 582 -233 602 -233 80 0 132 89 94 161 -7 11 -195 168 -419 348 -224
180 -442 355 -485 390 l-78 63 -122 0 -123 0 -17 35 c-9 19 -32 51 -51 72
l-34 38 55 94 55 94 -90 620 c-90 616 -91 620 -119 648 -35 34 -78 43 -120 25z
m127 -716 l81 -553 -48 -81 -49 -80 -69 0 -69 0 -47 80 -48 80 80 544 c43 300
79 551 79 559 0 56 20 -63 90 -549z m-23 -841 c99 -37 143 -162 89 -253 -89
-152 -326 -86 -326 90 0 38 28 100 57 126 46 42 124 58 180 37z m-344 -223 c3
-19 14 -52 23 -72 l18 -37 -34 -64 c-19 -36 -39 -68 -45 -73 -11 -9 -1038
-431 -1041 -427 -1 1 195 160 435 354 l436 352 101 0 101 1 6 -34z m1200 -312
c238 -191 437 -351 442 -356 12 -12 23 -16 -560 223 l-480 196 -38 68 -39 67
21 48 c12 27 21 57 21 68 0 10 3 22 7 25 3 4 49 7 100 7 l94 0 432 -346z"/>
<path d="M3755 4961 c-69 -17 -140 -72 -172 -134 -9 -18 -18 -62 -21 -99 -4
-59 -1 -75 22 -122 15 -31 44 -69 64 -86 72 -59 78 -60 609 -60 470 0 484 1
503 20 21 21 25 47 12 66 -21 32 -52 34 -531 34 l-480 0 -35 31 c-76 67 -63
179 26 225 15 8 38 14 53 14 30 0 65 32 65 60 0 11 -9 29 -20 40 -21 21 -43
23 -95 11z"/>
<path d="M705 4800 c-22 -25 -15 -63 28 -150 30 -61 34 -65 67 -65 26 0 38 6
48 25 14 24 12 32 -22 110 -20 46 -42 87 -49 92 -21 14 -53 9 -72 -12z"/>
<path d="M1271 4807 c-16 -20 -71 -157 -71 -178 0 -48 78 -68 104 -26 7 12 26
54 41 94 27 69 27 73 11 98 -18 28 -66 35 -85 12z"/>
<path d="M408 4729 c-10 -5 -22 -19 -28 -29 -16 -30 7 -64 109 -163 94 -90
123 -104 155 -71 36 36 21 65 -88 172 -57 56 -109 102 -117 102 -8 0 -22 -5
-31 -11z"/>
<path d="M1504 4638 c-57 -56 -106 -110 -110 -120 -9 -29 22 -68 54 -68 39 0
232 193 232 232 0 27 -31 58 -59 58 -7 0 -60 -46 -117 -102z"/>
<path d="M923 4505 c-172 -47 -292 -178 -325 -355 -34 -179 67 -372 239 -457
65 -32 86 -37 162 -41 99 -5 176 12 249 55 56 32 71 63 48 98 -22 33 -49 32
-127 -7 -55 -28 -75 -32 -139 -33 -191 0 -330 148 -318 339 11 164 130 283
294 294 134 9 245 -53 302 -168 43 -86 50 -152 23 -239 -27 -89 -26 -107 4
-127 37 -24 70 -6 98 53 18 40 22 66 22 163 0 109 -2 119 -32 183 -92 194
-302 295 -500 242z"/>
<path d="M306 4404 c-21 -21 -20 -57 2 -77 9 -8 52 -30 95 -47 74 -29 80 -30
103 -15 29 19 32 65 7 87 -26 21 -140 68 -168 68 -13 0 -31 -7 -39 -16z"/>
<path d="M1611 4386 c-82 -36 -102 -59 -83 -101 18 -39 49 -40 137 -2 96 41
119 69 92 111 -23 34 -53 33 -146 -8z"/>
<path d="M4045 4281 c-45 -11 -88 -36 -123 -72 -51 -52 -67 -95 -67 -180 0
-67 4 -81 30 -124 69 -109 233 -165 267 -90 20 44 -2 71 -66 85 -74 15 -116
60 -116 126 0 56 22 99 63 124 30 19 53 20 438 20 381 0 407 1 422 18 24 26
21 68 -5 86 -19 14 -75 16 -418 15 -217 -1 -408 -4 -425 -8z"/>
<path d="M146 4124 c-19 -18 -21 -65 -4 -82 8 -8 59 -12 163 -12 134 0 154 2
168 18 22 24 21 55 -1 75 -27 24 -303 25 -326 1z"/>
<path d="M1586 4121 c-25 -27 -17 -72 14 -88 32 -16 263 -18 293 -2 42 23 49
57 17 89 -18 18 -33 20 -163 20 -129 0 -146 -2 -161 -19z"/>
<path d="M387 3880 c-38 -16 -75 -34 -83 -41 -23 -19 -14 -71 16 -87 23 -13
33 -11 115 25 85 36 90 40 93 71 7 69 -34 78 -141 32z"/>
<path d="M1537 3892 c-21 -23 -22 -50 -1 -73 21 -23 170 -83 188 -76 8 3 23
18 32 32 16 25 16 27 -2 51 -20 27 -143 84 -180 84 -11 0 -28 -8 -37 -18z"/>
<path d="M477 3611 c-59 -59 -107 -115 -107 -125 0 -23 36 -56 63 -56 34 0
227 197 227 231 0 30 -28 59 -56 59 -12 0 -63 -43 -127 -109z"/>
<path d="M1410 3700 c-37 -37 -26 -58 83 -167 77 -77 110 -103 128 -103 30 0
59 28 59 56 0 24 -209 234 -233 234 -9 0 -26 -9 -37 -20z"/>
<path d="M767 3578 c-21 -16 -77 -149 -77 -182 0 -16 9 -32 24 -42 21 -13 29
-14 51 -2 37 18 99 166 86 201 -14 36 -53 48 -84 25z"/>
<path d="M1217 3572 c-10 -10 -17 -27 -17 -38 0 -34 62 -174 82 -185 25 -13
55 -3 74 26 14 21 12 29 -16 101 -42 107 -84 140 -123 96z"/>
<path d="M987 3522 c-14 -16 -17 -43 -17 -165 0 -139 1 -147 22 -161 29 -21
51 -20 71 2 14 16 17 43 17 168 0 103 -4 154 -12 162 -18 18 -63 14 -81 -6z"/>
<path d="M1089 3055 c-15 -8 -30 -22 -34 -32 -4 -10 -33 -198 -65 -418 l-59
-399 34 -60 33 -59 -31 -39 c-30 -38 -31 -38 -104 -38 l-74 0 -307 -246 c-169
-136 -315 -256 -324 -266 -46 -52 -5 -148 63 -148 17 0 194 67 401 151 203 83
370 150 371 148 2 -2 -2 -82 -7 -176 -8 -161 -8 -174 9 -193 23 -25 57 -26 78
-2 14 15 19 56 28 208 12 227 14 234 39 234 16 0 20 -7 20 -31 0 -36 77 -1309
84 -1386 l5 -53 -110 0 -109 0 0 43 c0 23 12 228 26 455 24 393 25 415 8 433
-21 23 -67 25 -85 3 -10 -12 -21 -135 -41 -448 -15 -237 -27 -443 -27 -458 -1
-26 -3 -27 -68 -30 -61 -3 -69 -6 -82 -29 -13 -24 -13 -29 2 -53 l17 -26 354
0 c329 0 354 1 369 18 43 48 8 90 -78 94 l-60 3 -43 694 c-23 382 -40 696 -38
698 2 3 170 -63 372 -146 202 -83 381 -151 397 -151 40 0 87 49 87 89 0 45
-27 70 -360 336 l-295 235 -76 0 -75 0 -27 41 -27 41 31 57 32 58 -59 404
c-56 390 -59 405 -85 432 -31 30 -69 35 -110 12z m96 -571 l37 -262 -26 -41
c-22 -35 -31 -41 -60 -41 -30 0 -37 6 -59 43 l-24 42 40 284 c27 189 43 276
48 260 4 -13 24 -142 44 -285z m16 -493 c39 -40 39 -82 0 -122 -50 -49 -121
-37 -147 27 -12 29 -12 39 0 68 27 64 97 77 147 27z m-257 -133 c12 -30 12
-37 -8 -72 -18 -35 -32 -44 -101 -72 -44 -18 -163 -67 -265 -108 -116 -48
-178 -69 -165 -57 11 11 110 92 220 180 l200 160 52 1 c50 0 54 -2 67 -32z
m714 -134 c114 -92 214 -173 222 -181 13 -12 -80 25 -491 193 -50 21 -74 72
-57 120 12 33 14 34 66 34 l53 0 207 -166z"/>
<path d="M3572 1710 c-18 -11 -39 -35 -47 -52 -16 -35 -165 -1040 -165 -1112
0 -23 9 -55 20 -74 35 -57 61 -62 330 -62 l240 0 0 -80 0 -79 -107 -3 c-104
-3 -108 -4 -122 -29 -13 -24 -13 -29 2 -53 l17 -26 433 0 c323 0 436 3 445 12
16 16 15 75 0 85 -7 4 -60 10 -118 13 l-105 5 -3 78 -3 77 124 0 c107 0 126 2
140 18 37 41 7 102 -50 102 -22 0 -23 3 -23 85 l0 85 138 0 139 0 11 -77 c6
-43 8 -81 6 -85 -3 -4 -24 -8 -47 -8 -54 0 -87 -22 -87 -59 0 -42 28 -61 89
-61 100 0 161 51 161 135 0 69 -150 1078 -165 1113 -8 17 -29 41 -47 52 -32
19 -52 20 -603 20 -551 0 -571 -1 -603 -20z m188 -180 l0 -90 -81 0 -81 0 6
28 c3 15 8 50 12 77 4 28 11 56 16 63 6 7 34 12 69 12 l59 0 0 -90z m358 -2
l3 -88 -121 0 -120 0 0 90 0 91 118 -3 117 -3 3 -87z m352 2 l0 -90 -120 0
-120 0 0 83 c0 46 3 87 7 90 3 4 57 7 120 7 l113 0 0 -90z m248 78 c5 -7 13
-40 16 -73 4 -33 9 -68 12 -77 5 -16 -3 -18 -80 -18 l-86 0 0 83 c0 46 3 87 7
90 12 12 120 8 131 -5z m-958 -383 l0 -95 -100 0 c-115 0 -107 -10 -89 115
l11 75 89 0 89 0 0 -95z m360 0 l0 -95 -120 0 -120 0 0 95 0 95 120 0 120 0 0
-95z m350 0 l0 -95 -120 0 -120 0 0 95 0 95 120 0 120 0 0 -95z m308 13 c7
-46 12 -89 12 -95 0 -10 -28 -13 -105 -13 l-105 0 0 95 0 95 93 0 94 0 11 -82z
m-1018 -323 l0 -95 -126 0 -126 0 6 28 c3 15 8 50 11 77 12 91 3 85 126 85
l109 0 0 -95z m360 0 l0 -95 -120 0 -120 0 0 95 0 95 120 0 120 0 0 -95z m350
0 l0 -95 -120 0 -120 0 0 95 0 95 120 0 120 0 0 -95z m344 68 c3 -16 8 -50 11
-78 4 -27 9 -58 12 -67 4 -17 -7 -18 -126 -18 l-131 0 0 95 0 95 114 0 114 0
6 -27z m-1054 -368 l0 -85 -146 0 -146 0 6 33 c3 17 8 56 12 85 l7 52 133 0
134 0 0 -85z m360 0 l0 -85 -120 0 -120 0 0 85 0 85 120 0 120 0 0 -85z m350
0 l0 -85 -120 0 -120 0 0 85 0 85 120 0 120 0 0 -85z m-190 -285 l0 -80 -105
0 -105 0 0 80 0 80 105 0 105 0 0 -80z"/>
</g>
</svg>
