<?xml version="1.0" standalone="no"?>
<!DOCTYPE svg PUBLIC "-//W3C//DTD SVG 20010904//EN"
 "http://www.w3.org/TR/2001/REC-SVG-20010904/DTD/svg10.dtd">
<svg version="1.0" xmlns="http://www.w3.org/2000/svg"
 width="512.000000pt" height="512.000000pt" viewBox="0 0 512.000000 512.000000"
 preserveAspectRatio="xMidYMid meet">

<g transform="translate(0.000000,512.000000) scale(0.100000,-0.100000)"
fill="#000000" stroke="none">
<path d="M1540 4121 c-6 -12 -10 -132 -10 -321 0 -189 4 -309 10 -321 6 -11
21 -19 35 -19 14 0 29 8 35 19 6 12 10 134 10 325 0 264 -2 307 -16 320 -21
22 -51 20 -64 -3z"/>
<path d="M190 3501 c-96 -20 -201 -102 -180 -140 17 -32 37 -31 82 4 118 92
228 84 352 -26 81 -72 137 -94 236 -94 94 1 143 22 228 98 62 55 129 87 183
87 57 0 128 -32 181 -83 149 -140 348 -139 483 4 49 51 101 73 175 73 76 0
113 -16 181 -79 26 -24 71 -56 100 -71 47 -24 65 -28 139 -28 74 0 92 4 139
28 29 15 74 47 100 71 68 63 105 79 181 79 77 0 111 -15 189 -86 63 -57 88
-71 160 -88 107 -25 216 9 309 97 54 51 124 83 181 83 54 0 121 -32 183 -87
88 -79 133 -97 238 -97 101 0 142 17 234 100 124 112 240 111 368 -3 87 -78
134 -98 233 -98 67 0 89 4 137 28 73 36 123 90 108 117 -14 26 -52 25 -76 -1
-31 -36 -113 -69 -169 -69 -65 0 -116 25 -190 90 -85 74 -132 93 -230 93 -68
0 -88 -4 -134 -27 -29 -15 -75 -47 -101 -72 -59 -56 -121 -84 -185 -84 -65 0
-119 26 -190 90 -81 73 -131 94 -230 94 -96 -1 -146 -22 -243 -107 -72 -63
-127 -83 -202 -74 -63 8 -95 25 -163 87 -77 70 -134 94 -227 94 -94 0 -160
-28 -242 -102 -119 -110 -236 -109 -357 0 -85 77 -141 101 -236 102 -99 0
-156 -23 -230 -93 -65 -61 -103 -81 -171 -88 -72 -8 -131 16 -200 78 -86 78
-144 102 -239 103 -99 0 -149 -21 -230 -94 -32 -29 -76 -61 -99 -71 -87 -40
-202 -12 -276 66 -71 75 -202 117 -300 96z"/>
<path d="M1540 3111 c-6 -12 -10 -97 -10 -208 0 -134 -4 -193 -12 -201 -9 -9
-113 -12 -408 -12 -248 0 -410 -4 -435 -11 -89 -24 -163 -95 -199 -192 -27
-72 -45 -84 -131 -89 -141 -9 -265 -98 -317 -226 -22 -56 -23 -65 -26 -498 -3
-364 -1 -452 12 -505 15 -64 22 -79 314 -599 63 -113 142 -254 175 -315 68
-123 127 -189 202 -225 l50 -25 820 0 820 0 50 25 c27 14 68 43 91 66 44 44
54 60 253 417 73 130 137 237 142 237 5 0 113 -89 240 -197 159 -136 231 -205
235 -223 30 -135 127 -220 254 -220 61 0 141 32 174 69 19 20 26 21 285 21
l266 0 100 -100 100 -100 160 0 161 0 107 109 c59 59 107 113 107 119 0 16
-29 42 -47 42 -9 0 -59 -43 -112 -95 l-97 -95 -92 0 -92 0 0 285 0 285 91 0
91 0 100 -95 c55 -52 106 -95 113 -95 16 0 45 27 45 42 0 6 -48 60 -107 119
l-107 109 -161 0 -160 0 -100 -100 -100 -100 -266 0 c-218 0 -268 3 -272 14
-3 7 -34 28 -68 45 -49 24 -75 31 -123 31 l-61 0 -90 77 c-49 42 -163 138
-252 214 l-162 139 21 47 c15 32 24 77 28 133 l5 85 224 191 223 192 72 4 c75
5 136 29 170 67 19 20 27 21 285 21 l266 0 100 -100 100 -100 160 0 161 0 107
109 c59 59 107 113 107 119 0 16 -29 42 -47 42 -9 0 -59 -43 -112 -95 l-97
-95 -92 0 -92 0 0 285 0 285 53 1 c130 3 122 7 228 -96 54 -52 105 -95 113
-95 17 0 46 27 46 43 0 6 -49 60 -108 119 l-108 108 -160 0 -159 0 -100 -100
-100 -100 -263 0 -264 0 -39 33 c-100 86 -258 73 -350 -30 -34 -37 -49 -69
-63 -134 -5 -25 -233 -239 -255 -239 -6 0 -11 70 -13 198 -3 195 -3 197 -32
255 -56 109 -168 185 -289 194 -107 8 -104 6 -145 96 -28 60 -51 93 -87 125
-80 70 -93 72 -546 72 -320 0 -399 3 -408 13 -7 9 -12 84 -14 208 -2 107 -6
200 -11 207 -11 19 -54 14 -66 -7z m957 -529 c47 -25 89 -80 99 -129 5 -25 2
-33 -14 -42 -15 -8 -315 -11 -1015 -11 -1111 0 -1031 -5 -1008 69 19 66 64
108 141 132 14 4 414 7 890 6 l865 -2 42 -23z m416 -296 c65 -32 118 -94 137
-161 7 -27 10 -188 8 -505 l-3 -465 -69 -125 c-428 -769 -467 -835 -516 -882
-28 -26 -67 -53 -88 -60 -51 -17 -1466 -24 -1562 -8 -77 13 -147 54 -183 108
-14 20 -60 100 -102 177 -43 77 -150 268 -238 425 -88 157 -170 308 -183 335
l-24 50 1 465 c0 352 3 474 13 501 17 49 61 104 103 130 80 49 35 48 1383 46
l1265 -2 58 -29z m1687 -333 l0 -258 -72 73 -73 72 -1 115 0 116 70 69 c38 39
71 70 73 70 2 0 3 -116 3 -257z m-230 2 l0 -85 -227 0 -228 0 0 85 0 85 228 0
227 0 0 -85z m-887 -183 c31 -32 31 -32 12 -51 -44 -43 -340 -291 -347 -291
-5 0 -8 44 -8 98 l0 97 137 122 137 122 19 -32 c10 -18 33 -47 50 -65z m-325
-884 c200 -168 352 -301 352 -308 0 -4 -10 -15 -22 -26 -11 -10 -33 -38 -48
-61 l-27 -42 -215 183 c-119 101 -218 188 -222 194 -7 11 63 142 76 142 5 0
53 -37 106 -82z m1442 -525 l0 -257 -75 74 -75 74 0 114 0 114 67 69 c36 38
70 69 75 69 4 0 8 -116 8 -257z m-230 2 l0 -85 -227 0 -228 0 0 85 0 85 228 0
227 0 0 -85z"/>
<path d="M630 2060 c-8 -14 -8 -26 0 -40 10 -19 21 -20 306 -20 l294 0 12 25
c8 19 8 28 -2 40 -11 13 -55 15 -306 15 -283 0 -294 -1 -304 -20z"/>
<path d="M1910 2065 c-10 -12 -10 -21 -2 -40 l12 -25 289 0 c250 0 292 2 305
16 9 8 16 21 16 28 0 34 -21 36 -316 36 -249 0 -293 -2 -304 -15z"/>
<path d="M567 1729 c-20 -11 -49 -38 -65 -61 l-27 -41 -3 -210 -3 -210 32 -65
c56 -114 -75 -102 1074 -102 1150 0 1015 -13 1073 104 l32 64 0 198 c0 233 -9
265 -88 315 -42 26 -54 29 -132 29 -104 0 -114 -7 -141 -106 -31 -111 -82
-171 -177 -207 -37 -15 -103 -17 -566 -17 -569 0 -570 0 -644 57 -47 35 -89
105 -102 169 -6 29 -20 64 -31 78 -19 24 -26 26 -107 26 -67 -1 -96 -5 -125
-21z"/>
<path d="M945 1693 c-36 -35 4 -126 69 -157 30 -14 96 -16 564 -16 l529 0 34
23 c41 27 79 82 79 113 0 56 22 54 -645 54 -560 0 -615 -1 -630 -17z"/>
<path d="M647 933 c-4 -3 -7 -14 -7 -23 0 -23 226 -428 259 -464 52 -57 40
-56 676 -56 631 0 624 0 673 52 38 41 263 451 260 473 -3 20 -11 20 -929 23
-509 1 -929 -1 -932 -5z"/>
</g>
</svg>
