<?xml version="1.0" standalone="no"?>
<!DOCTYPE svg PUBLIC "-//W3C//DTD SVG 20010904//EN"
 "http://www.w3.org/TR/2001/REC-SVG-20010904/DTD/svg10.dtd">
<svg version="1.0" xmlns="http://www.w3.org/2000/svg"
 width="512.000000pt" height="512.000000pt" viewBox="0 0 512.000000 512.000000"
 preserveAspectRatio="xMidYMid meet">

<g transform="translate(0.000000,512.000000) scale(0.100000,-0.100000)"
fill="#000000" stroke="none">
<path d="M29 4681 l-29 -29 0 -2091 0 -2090 24 -28 24 -28 2512 0 2512 0 24
28 24 28 0 2089 0 2089 -24 28 -24 28 -2507 3 -2506 2 -30 -29z m961 -551 l0
-410 -49 0 c-44 0 -49 2 -55 26 -10 38 -49 96 -90 132 -63 55 -113 75 -201 80
-109 5 -180 -21 -252 -94 -188 -193 -82 -508 187 -556 73 -12 164 9 230 53 53
36 116 116 125 159 6 28 9 30 56 30 l49 0 0 -245 0 -245 -410 0 -410 0 0 740
0 740 410 0 410 0 0 -410z m3960 330 l0 -80 -1895 0 -1895 0 0 80 0 80 1895 0
1895 0 0 -80z m0 -825 l0 -575 -1895 0 -1895 0 0 245 0 245 120 0 120 0 0 85
0 85 -120 0 -120 0 0 245 0 245 1895 0 1895 0 0 -575z m-4313 150 c40 -17 73
-43 73 -57 0 -4 -29 -8 -65 -8 l-65 0 0 -85 0 -85 72 0 71 0 -24 -26 c-78 -86
-216 -66 -268 39 -31 62 -23 122 22 174 54 61 115 77 184 48z m353 -1145 l0
-250 -44 0 -43 0 -32 64 c-62 126 -173 192 -311 184 -126 -8 -226 -73 -281
-183 -20 -42 -24 -64 -24 -145 0 -87 3 -100 30 -148 110 -199 366 -239 522
-83 23 24 54 67 69 97 26 53 27 54 70 54 l44 0 0 -415 0 -415 -410 0 -410 0 0
745 0 745 410 0 410 0 0 -250z m3960 -330 l0 -580 -1895 0 -1895 0 0 250 0
250 120 0 120 0 0 80 0 80 -120 0 -120 0 0 250 0 250 1895 0 1895 0 0 -580z
m-4317 156 c44 -16 77 -43 77 -63 0 -9 -17 -13 -65 -13 l-65 0 0 -80 0 -80 72
0 71 0 -24 -26 c-39 -42 -77 -57 -134 -52 -139 12 -201 166 -108 269 50 56
106 70 176 45z m4317 -981 l0 -85 -1895 0 -1895 0 0 85 0 85 1895 0 1895 0 0
-85z m0 -575 l0 -330 -2390 0 -2390 0 0 330 0 330 2390 0 2390 0 0 -330z"/>
<path d="M1945 4118 c-28 -16 -32 -23 -110 -218 l-71 -175 -97 -3 -97 -3 0
-84 0 -85 134 0 c170 0 168 -1 232 161 44 111 49 118 60 97 7 -13 57 -125 112
-249 140 -315 140 -315 168 -328 74 -33 100 -3 165 193 l52 160 43 -87 c46
-90 63 -107 111 -107 36 0 61 26 141 147 l61 91 121 4 120 3 124 124 123 123
16 -68 c8 -38 39 -177 68 -309 42 -190 58 -245 76 -262 27 -28 72 -30 102 -5
12 10 52 95 95 202 l74 185 113 5 114 6 179 108 c138 84 180 106 187 95 39
-67 129 -186 149 -196 16 -8 70 -13 153 -13 l127 0 0 85 0 85 -102 0 -103 0
-68 104 c-38 58 -76 111 -85 119 -43 39 -57 33 -279 -98 l-211 -125 -125 0
c-154 0 -160 -4 -207 -125 -18 -47 -35 -84 -37 -82 -2 2 -28 114 -58 248 -48
216 -57 247 -80 267 -51 44 -65 36 -245 -143 l-166 -165 -120 0 c-140 0 -143
-1 -204 -95 -23 -36 -44 -65 -46 -65 -2 0 -29 49 -59 110 -55 110 -73 130
-118 130 -50 0 -70 -30 -122 -189 -27 -83 -52 -147 -56 -143 -4 4 -62 129
-128 277 -67 149 -130 278 -142 288 -24 19 -55 22 -84 5z"/>
<path d="M3105 2716 c-25 -11 -44 -42 -120 -195 -49 -99 -92 -181 -95 -181 -3
0 -27 44 -55 98 -83 161 -118 162 -234 9 -41 -53 -76 -96 -77 -94 -2 2 -13 50
-24 108 -32 158 -44 179 -104 179 -62 0 -69 -12 -126 -215 -23 -82 -44 -151
-45 -153 -2 -2 -22 53 -45 122 -44 132 -68 166 -116 166 -45 0 -72 -39 -113
-160 -22 -65 -41 -108 -45 -100 -3 8 -24 89 -46 180 -47 191 -56 217 -81 230
-23 13 -65 13 -90 0 -17 -9 -189 -335 -189 -358 0 -8 123 -72 138 -72 5 0 21
27 37 60 18 37 31 56 36 48 3 -7 30 -110 59 -228 58 -231 72 -260 127 -260 54
0 69 22 119 172 l47 142 47 -139 c51 -148 69 -175 122 -175 49 0 70 34 107
168 19 67 37 122 41 122 4 0 10 -18 14 -40 9 -58 37 -82 89 -78 41 3 44 6 129
118 48 63 91 116 95 117 5 2 31 -42 58 -98 28 -56 61 -110 74 -120 29 -23 69
-24 99 -3 13 9 60 91 106 182 76 152 85 165 94 142 5 -14 46 -124 91 -245 86
-232 106 -265 160 -265 44 0 65 30 121 172 76 190 63 177 122 123 72 -64 101
-63 178 11 32 31 63 53 68 50 6 -3 52 -62 103 -131 100 -134 128 -156 177
-136 16 7 79 77 157 176 72 90 133 164 137 165 4 0 31 -35 59 -77 62 -93 73
-103 117 -103 30 0 47 12 129 92 l94 92 -61 61 -60 60 -47 -47 -47 -47 -63 94
c-103 155 -116 151 -301 -80 l-141 -176 -96 128 c-53 70 -108 134 -122 141
-38 20 -70 7 -138 -58 l-61 -59 -54 54 c-66 67 -99 82 -139 65 -32 -13 -42
-30 -91 -155 -17 -44 -35 -83 -39 -87 -3 -4 -45 95 -91 220 -47 124 -94 237
-105 249 -27 29 -54 35 -90 19z"/>
<path d="M679 1147 c-112 -31 -179 -121 -179 -239 0 -70 19 -121 63 -166 53
-56 102 -76 183 -77 61 0 77 4 120 30 124 76 160 235 81 351 -58 85 -171 128
-268 101z m109 -173 c32 -22 43 -57 31 -94 -20 -55 -91 -69 -134 -25 -29 28
-31 54 -10 95 22 43 71 53 113 24z"/>
<path d="M1337 1146 c-103 -28 -177 -128 -177 -238 0 -69 16 -111 60 -162 116
-132 322 -105 403 53 60 120 17 260 -99 323 -61 33 -125 41 -187 24z m116
-176 c33 -26 41 -63 23 -99 -34 -65 -135 -52 -151 18 -17 76 67 129 128 81z"/>
<path d="M2970 910 l0 -80 85 0 85 0 0 80 0 80 -85 0 -85 0 0 -80z"/>
<path d="M3300 910 l0 -80 85 0 85 0 0 80 0 80 -85 0 -85 0 0 -80z"/>
<path d="M3630 910 l0 -80 85 0 85 0 0 80 0 80 -85 0 -85 0 0 -80z"/>
<path d="M3960 910 l0 -80 85 0 85 0 0 80 0 80 -85 0 -85 0 0 -80z"/>
<path d="M4290 910 l0 -80 85 0 85 0 0 80 0 80 -85 0 -85 0 0 -80z"/>
<path d="M4620 910 l0 -80 85 0 85 0 0 80 0 80 -85 0 -85 0 0 -80z"/>
</g>
</svg>
