<?xml version="1.0" standalone="no"?>
<!DOCTYPE svg PUBLIC "-//W3C//DTD SVG 20010904//EN"
 "http://www.w3.org/TR/2001/REC-SVG-20010904/DTD/svg10.dtd">
<svg version="1.0" xmlns="http://www.w3.org/2000/svg"
 width="512.000000pt" height="512.000000pt" viewBox="0 0 512.000000 512.000000"
 preserveAspectRatio="xMidYMid meet">

<g transform="translate(0.000000,512.000000) scale(0.100000,-0.100000)"
fill="#000000" stroke="none">
<path d="M1516 4878 c-15 -14 -41 -66 -66 -133 -23 -60 -47 -115 -53 -121 -7
-7 -48 -23 -92 -38 -44 -14 -120 -46 -170 -70 l-89 -44 -124 55 c-93 41 -131
53 -150 48 -38 -9 -359 -331 -368 -368 -5 -22 3 -52 36 -125 23 -54 47 -109
53 -124 9 -23 4 -40 -35 -125 -25 -54 -56 -129 -68 -168 -13 -38 -28 -75 -34
-82 -6 -6 -60 -30 -121 -53 -164 -62 -155 -42 -155 -335 0 -293 -9 -273 155
-335 61 -23 115 -47 121 -53 6 -7 21 -43 33 -82 12 -38 43 -114 69 -168 39
-85 44 -102 35 -125 -6 -15 -30 -70 -53 -124 -33 -73 -41 -103 -36 -125 10
-37 330 -359 368 -368 20 -5 51 4 119 34 51 22 93 40 94 38 1 -1 14 -24 30
-52 58 -103 149 -202 237 -259 16 -10 28 -21 28 -25 0 -3 -30 -17 -67 -29
-478 -166 -832 -567 -943 -1067 -28 -126 -26 -179 5 -210 l24 -25 1384 0 1384
0 27 21 c22 17 26 28 26 72 0 29 -7 83 -15 122 -18 85 -18 92 -3 77 14 -14 62
-16 87 -2 10 5 23 22 29 37 6 15 97 357 202 758 105 402 195 746 200 765 l9
35 103 -3 c57 -2 104 -5 105 -6 1 -1 97 -350 214 -776 152 -558 217 -781 232
-797 35 -39 98 -29 123 19 15 28 7 58 -202 824 l-217 795 57 57 c65 66 97 115
121 190 l17 52 118 0 c157 0 163 4 170 127 l5 88 80 0 c79 0 80 0 83 -26 2
-15 11 -34 21 -43 21 -19 274 -106 309 -106 12 0 34 11 47 25 l25 24 0 381 0
381 -25 24 c-13 14 -35 25 -47 25 -35 0 -288 -87 -309 -106 -10 -9 -19 -28
-21 -43 -3 -26 -4 -26 -83 -26 l-80 0 -5 88 c-8 138 37 127 -515 127 l-463 0
-7 30 c-9 39 -29 52 -166 104 l-112 43 -32 94 c-17 52 -50 131 -73 176 l-42
82 55 125 c39 87 54 133 50 149 -9 35 -356 377 -382 377 -12 0 -76 -25 -143
-54 l-121 -55 -89 44 c-48 25 -127 58 -176 74 l-88 30 -50 128 c-39 98 -57
131 -76 140 -18 9 -93 13 -262 13 -232 0 -237 0 -262 -22z m474 -250 c24 -62
49 -121 57 -130 8 -9 65 -33 127 -52 62 -19 160 -60 220 -91 59 -30 113 -55
119 -55 7 0 65 23 130 52 l118 52 116 -116 115 -115 -51 -116 c-28 -63 -51
-122 -51 -130 0 -9 25 -64 55 -124 30 -59 70 -157 90 -218 20 -60 41 -115 48
-122 7 -7 39 -23 71 -36 l59 -24 -89 -5 c-140 -7 -227 -56 -304 -170 -114
-171 -114 -425 1 -597 22 -33 52 -70 66 -81 23 -18 25 -23 15 -46 -18 -38 -16
-47 39 -171 l51 -116 -115 -115 -115 -115 -124 53 -125 54 35 30 c64 56 79
135 41 214 -13 25 -37 54 -60 69 -33 22 -39 31 -39 61 0 19 -5 63 -12 97 l-11
63 35 49 c51 70 104 179 135 280 24 79 26 104 26 238 0 135 -2 159 -27 240
-101 333 -359 568 -692 631 -114 21 -287 14 -392 -16 -506 -143 -778 -673
-598 -1165 l25 -70 -34 -80 c-34 -82 -65 -207 -65 -268 0 -29 -6 -39 -39 -60
-44 -30 -81 -96 -81 -148 1 -77 66 -162 136 -175 54 -10 42 -39 -29 -71 l-58
-27 -117 117 -116 116 52 119 c29 66 52 124 52 128 0 4 -27 61 -60 126 -33 65
-74 165 -91 221 -17 56 -37 108 -43 115 -7 7 -64 32 -127 56 l-114 44 0 167 0
167 114 44 c63 24 121 49 128 56 7 7 24 54 38 103 14 50 55 149 90 221 36 73
65 135 65 139 0 4 -23 61 -52 127 l-52 119 116 116 116 116 116 -51 c64 -29
123 -52 131 -52 8 0 56 22 107 49 95 50 189 87 289 115 31 9 61 22 67 29 6 7
27 56 47 107 20 52 41 105 46 118 8 22 12 22 172 22 l164 0 43 -112z m15 -742
c355 -120 563 -475 489 -833 -17 -85 -55 -185 -83 -222 l-18 -24 -19 29 c-77
124 -184 222 -316 294 -55 29 -79 49 -88 70 -39 95 -199 154 -353 130 -110
-17 -201 -75 -222 -140 -4 -11 -30 -32 -58 -47 -65 -32 -128 -75 -193 -130
l-51 -43 -12 38 c-7 20 -15 89 -18 153 -7 147 11 235 75 362 37 76 61 108 136
182 158 157 310 217 536 211 92 -3 131 -9 195 -30z m1115 -956 c0 -349 5 -328
-76 -291 -159 72 -201 369 -73 524 34 41 91 76 127 77 l22 0 0 -310z m240 141
c0 -174 8 -224 40 -241 11 -6 169 -10 395 -10 226 0 384 4 395 10 32 17 40 67
40 241 l0 169 40 0 40 0 0 -310 0 -310 -515 0 -515 0 0 310 0 310 40 0 40 0 0
-169z m710 39 l0 -130 -275 0 -275 0 0 130 0 130 275 0 275 0 0 -130z m-2321
59 c88 -19 85 0 63 -377 -11 -181 -23 -335 -26 -341 -9 -14 -192 -15 -201 -1
-3 5 -15 159 -25 342 -23 379 -26 360 60 377 63 12 73 12 129 0z m3131 -240
c0 -226 -1 -241 -17 -234 -10 4 -28 10 -40 12 -23 5 -23 5 -23 223 l0 217 33
11 c17 5 35 10 40 11 4 1 7 -107 7 -240z m-240 1 l0 -90 -85 0 -85 0 0 90 0
90 85 0 85 0 0 -90z m-3241 -145 c6 -110 14 -233 17 -272 l6 -73 -191 0 -191
0 0 28 c0 52 39 182 76 252 45 86 126 176 206 230 33 22 62 39 63 38 2 -2 8
-93 14 -203z m742 85 c59 -59 85 -95 117 -160 44 -89 72 -182 72 -237 l0 -33
-190 0 -190 0 5 68 c8 100 25 406 25 447 l0 36 42 -23 c24 -13 77 -57 119 -98z
m1174 -455 c20 -69 55 -127 112 -186 l55 -58 -201 -768 c-111 -422 -205 -777
-209 -787 -7 -15 -13 -6 -31 45 -123 338 -407 646 -741 803 -52 24 -121 52
-152 62 -32 10 -58 20 -58 24 0 3 27 25 61 50 62 45 136 124 183 197 21 32 47
51 106 82 l79 40 121 -54 c67 -30 131 -55 143 -55 26 0 373 342 382 377 4 16
-7 51 -31 106 -20 45 -45 101 -55 125 l-19 43 122 -3 121 -3 12 -40z m695 32
c0 -23 -57 -104 -92 -130 -53 -41 -102 -57 -171 -57 -112 0 -197 46 -247 133
-16 29 -30 55 -30 60 0 4 122 7 270 7 215 0 270 -3 270 -13z m-1562 -189 c3
-17 -38 -18 -757 -18 -496 0 -762 3 -766 10 -3 6 -3 15 0 20 4 7 263 9 763 8
712 -3 757 -4 760 -20z m-172 -205 c-4 -16 -25 -66 -48 -112 -72 -150 -214
-267 -383 -317 -81 -24 -239 -24 -320 0 -168 50 -313 171 -384 318 -21 46 -42
95 -45 111 l-6 27 596 0 596 0 -6 -27z m194 23 c0 -2 -7 -7 -16 -10 -8 -3 -12
-2 -9 4 6 10 25 14 25 6z m-607 -647 c74 -11 224 -46 240 -56 5 -3 -85 -99
-199 -214 l-209 -209 -207 207 c-115 114 -208 211 -208 214 0 9 112 39 200 54
95 16 289 18 383 4z m-163 -669 c31 0 55 21 305 270 l271 271 84 -51 c47 -28
88 -54 91 -58 4 -4 9 -188 13 -410 l6 -402 -772 2 -773 3 -6 400 c-6 389 -5
400 14 415 11 8 56 36 101 63 l81 47 275 -275 c254 -254 278 -275 310 -275z
m-940 -50 l0 -330 -170 0 c-131 0 -170 3 -170 13 0 19 38 155 61 217 34 93
110 230 170 309 81 106 93 120 102 121 4 0 7 -148 7 -330z m1963 206 c88 -115
167 -280 206 -430 12 -44 21 -86 21 -93 0 -10 -34 -13 -158 -13 l-159 0 -6
203 c-4 111 -7 260 -7 332 l0 130 33 -39 c17 -22 49 -62 70 -90z"/>
</g>
</svg>
